<svg width="709" height="200" viewBox="0 0 709 200" fill="none" xmlns="http://www.w3.org/2000/svg">
<g clip-path="url(#clip0_2608_314)">
<path d="M7.7441 138.546C13.1902 94.0062 35.8914 79.7202 56.2182 67.0617C76.9744 54.1305 94.9269 42.8045 92.7672 0.250488C83.2993 0.927134 73.9771 2.9569 65.085 6.2779C65.9882 40.0502 49.9896 50.066 34.465 59.7376C18.0685 69.9502 2.57966 79.5995 1.60938 117.678C2.90607 124.926 4.96738 131.923 7.7441 138.546Z" fill="#973EC0"/>
<path d="M29.7345 52.1451C44.2039 43.1264 55.9055 35.7486 56.1693 10.1187C29.8329 23.0276 9.98001 47.1774 2.875 76.2771C10.1678 64.343 20.3044 58.0161 29.7345 52.1451ZM32.3771 173.592C35.9006 126.124 56.7282 109.558 76.9254 93.5188C98.8664 76.0983 119.6 59.59 118.433 1.67676C112.91 0.649527 107.31 0.0886293 101.692 0C104.008 47.6693 82.1658 61.4322 60.9447 74.6496C39.4464 88.0413 17.2594 101.943 15.5513 153.44C20.2563 160.863 25.913 167.638 32.3771 173.592ZM139.471 121.402C159.512 105.319 178.417 90.0087 177.406 36.6384C172.003 30.0622 165.789 24.1968 158.912 19.1822C158.631 77.4889 135.965 95.7142 113.998 113.34C93.3219 129.934 73.8044 145.633 72.3735 196.128C80.6188 198.498 89.2887 199.844 98.2494 200.004C100.606 152.729 120.329 136.77 139.471 121.402ZM173.06 142.261C158.707 151.007 146.258 158.676 144.81 189.43C172.331 175.6 192.618 149.451 198.395 118.245C191.947 130.738 182.168 136.712 173.06 142.261Z" fill="#973EC0"/>
<path d="M168.41 134.629C183.782 125.257 198.31 116.412 196.539 75.289L197 75.2711C194.658 66.1132 191.021 57.3367 186.197 49.2075C184.082 96.917 164.31 112.942 145.078 128.378C126.777 143.053 109.513 157.035 107.228 199.754C116.983 199.064 126.584 196.94 135.72 193.449C136.265 154.218 153.337 143.813 168.41 134.629ZM108.409 106.365C130.385 88.7344 151.15 72.0338 149.934 13.3337C142.853 9.24101 135.295 6.03624 127.43 3.79175C128.069 64.3341 104.907 82.7204 82.488 100.521C62.0717 116.73 42.8045 132.129 40.9668 180.657C47.9353 185.776 55.5391 189.968 63.5875 193.128C65.7963 140.701 87.4288 123.2 108.409 106.365Z" fill="#973EC0"/>
</g>
<path d="M221.76 130.12H259.584V72.616L237.984 118.888L216.384 72.52V133L213.504 132.904V65.704H216.384L237.984 112.072L259.584 65.8L262.464 65.704V133L221.76 132.904V130.12ZM318.337 127.336C314.817 131.752 309.057 133.96 301.057 133.96C293.057 133.96 287.329 131.688 283.873 127.144C280.417 122.6 278.689 115.272 278.689 105.16C278.689 95.048 280.417 87.72 283.873 83.176C287.329 78.632 293.057 76.36 301.057 76.36C310.337 76.36 316.641 79.4 319.969 85.48L296.449 105.16H291.937L316.225 84.904C313.409 81.128 308.353 79.24 301.057 79.24C297.857 79.24 295.169 79.592 292.993 80.296C290.817 80.936 288.801 82.184 286.945 84.04C285.153 85.832 283.809 88.488 282.913 92.008C282.017 95.464 281.569 99.848 281.569 105.16C281.569 110.472 282.017 114.888 282.913 118.408C283.809 121.864 285.153 124.52 286.945 126.376C288.801 128.168 290.817 129.416 292.993 130.12C295.169 130.76 297.857 131.08 301.057 131.08C308.353 131.08 313.409 129.192 316.225 125.416L318.337 127.336ZM369.683 77.32V80.2H349.523V133H346.643V80.2H326.483V77.32H369.683ZM385.833 130.12H417.129L397.449 83.752L376.521 133H373.449L397.449 76.36L421.449 133H385.833V130.12ZM462.826 65.8H502.186L477.706 133.096L453.226 65.8H456.298L477.706 124.648L498.058 68.68H462.826V65.8ZM550.181 127.336C546.661 131.752 540.901 133.96 532.901 133.96C524.901 133.96 519.173 131.688 515.717 127.144C512.261 122.6 510.533 115.272 510.533 105.16C510.533 95.048 512.261 87.72 515.717 83.176C519.173 78.632 524.901 76.36 532.901 76.36C542.181 76.36 548.485 79.4 551.812 85.48L528.293 105.16H523.781L548.069 84.904C545.253 81.128 540.197 79.24 532.901 79.24C529.701 79.24 527.013 79.592 524.837 80.296C522.661 80.936 520.645 82.184 518.789 84.04C516.997 85.832 515.653 88.488 514.757 92.008C513.861 95.464 513.413 99.848 513.413 105.16C513.413 110.472 513.861 114.888 514.757 118.408C515.653 121.864 516.997 124.52 518.789 126.376C520.645 128.168 522.661 129.416 524.837 130.12C527.013 130.76 529.701 131.08 532.901 131.08C540.197 131.08 545.253 129.192 548.069 125.416L550.181 127.336ZM588.95 105.064L602.006 133H598.838L585.398 104.2C585.526 104.136 586.07 103.88 587.03 103.432C588.054 102.92 588.758 102.568 589.142 102.376C589.526 102.12 590.166 101.704 591.062 101.128C591.958 100.552 592.63 100.008 593.078 99.496C593.526 98.92 594.006 98.28 594.518 97.576C595.094 96.808 595.51 95.976 595.766 95.08C596.022 94.12 596.15 93.096 596.15 92.008C596.15 87.976 594.23 85 590.39 83.08C586.55 81.16 581.782 80.2 576.086 80.2H568.406V133H565.526V77.32H576.086C583.638 77.32 589.334 78.632 593.174 81.256C597.078 83.88 599.03 87.464 599.03 92.008C599.03 94.952 598.038 97.576 596.054 99.88C594.07 102.12 591.702 103.848 588.95 105.064ZM629.714 76.168C637.65 76.168 643.282 77.928 646.61 81.448L644.69 83.56C641.618 80.552 636.754 79.048 630.098 79.048C620.114 79.048 615.122 83.016 615.122 90.952C615.122 94.024 616.338 96.488 618.77 98.344C621.202 100.136 624.146 101.512 627.602 102.472C631.122 103.432 634.61 104.456 638.066 105.544C641.586 106.568 644.562 108.264 646.994 110.632C649.426 112.936 650.642 115.976 650.642 119.752C650.642 124.168 648.818 127.688 645.17 130.312C641.522 132.936 636.242 134.248 629.33 134.248C625.938 134.248 622.578 133.8 619.25 132.904C615.986 132.008 613.554 130.696 611.954 128.968L613.874 126.856C617.138 129.864 622.162 131.368 628.946 131.368C635.154 131.368 639.826 130.216 642.962 127.912C646.162 125.608 647.762 122.92 647.762 119.848C647.762 116.648 646.546 114.056 644.114 112.072C641.682 110.088 638.706 108.616 635.186 107.656C631.73 106.632 628.242 105.608 624.722 104.584C621.266 103.496 618.322 101.832 615.89 99.592C613.458 97.352 612.242 94.408 612.242 90.76C612.242 85.832 613.874 82.184 617.138 79.816C620.466 77.384 624.658 76.168 629.714 76.168ZM701.868 127.336C698.348 131.752 692.588 133.96 684.588 133.96C676.588 133.96 670.86 131.688 667.404 127.144C663.948 122.6 662.22 115.272 662.22 105.16C662.22 95.048 663.948 87.72 667.404 83.176C670.86 78.632 676.588 76.36 684.588 76.36C693.868 76.36 700.172 79.4 703.5 85.48L679.98 105.16H675.468L699.756 84.904C696.94 81.128 691.884 79.24 684.588 79.24C681.388 79.24 678.7 79.592 676.524 80.296C674.348 80.936 672.332 82.184 670.476 84.04C668.684 85.832 667.34 88.488 666.444 92.008C665.548 95.464 665.1 99.848 665.1 105.16C665.1 110.472 665.548 114.888 666.444 118.408C667.34 121.864 668.684 124.52 670.476 126.376C672.332 128.168 674.348 129.416 676.524 130.12C678.7 130.76 681.388 131.08 684.588 131.08C691.884 131.08 696.94 129.192 699.756 125.416L701.868 127.336Z" fill="black"/>
<defs>
<clipPath id="clip0_2608_314">
<rect width="200" height="200" fill="white"/>
</clipPath>
</defs>
</svg>
